<svg width="123" height="28" viewBox="0 0 123 28" fill="none" xmlns="http://www.w3.org/2000/svg">
<path d="M45.6253 13.43H48.7753V18.65C48.0553 19.166 47.2273 19.562 46.2913 19.838C45.3553 20.114 44.4193 20.252 43.4833 20.252C42.1633 20.252 40.9753 19.976 39.9193 19.424C38.8633 18.86 38.0353 18.08 37.4353 17.084C36.8353 16.088 36.5353 14.96 36.5353 13.7C36.5353 12.44 36.8353 11.312 37.4353 10.316C38.0353 9.32 38.8693 8.546 39.9373 7.994C41.0053 7.43 42.2113 7.148 43.5553 7.148C44.7313 7.148 45.7873 7.346 46.7233 7.742C47.6593 8.138 48.4393 8.708 49.0633 9.452L46.7953 11.504C45.9433 10.568 44.9233 10.1 43.7353 10.1C42.6553 10.1 41.7853 10.43 41.1253 11.09C40.4653 11.738 40.1353 12.608 40.1353 13.7C40.1353 14.396 40.2853 15.02 40.5853 15.572C40.8853 16.112 41.3053 16.538 41.8453 16.85C42.3853 17.15 43.0033 17.3 43.6993 17.3C44.3833 17.3 45.0253 17.162 45.6253 16.886V13.43ZM57.3889 20.252C56.0569 20.252 54.8569 19.97 53.7889 19.406C52.7329 18.842 51.8989 18.062 51.2869 17.066C50.6869 16.07 50.3869 14.948 50.3869 13.7C50.3869 12.452 50.6869 11.33 51.2869 10.334C51.8989 9.338 52.7329 8.558 53.7889 7.994C54.8569 7.43 56.0569 7.148 57.3889 7.148C58.7209 7.148 59.9149 7.43 60.9709 7.994C62.0389 8.558 62.8729 9.338 63.4729 10.334C64.0849 11.33 64.3909 12.452 64.3909 13.7C64.3909 14.948 64.0849 16.07 63.4729 17.066C62.8729 18.062 62.0389 18.842 60.9709 19.406C59.9149 19.97 58.7209 20.252 57.3889 20.252ZM57.3889 17.3C58.0249 17.3 58.6009 17.15 59.1169 16.85C59.6329 16.55 60.0409 16.13 60.3409 15.59C60.6409 15.038 60.7909 14.408 60.7909 13.7C60.7909 12.992 60.6409 12.368 60.3409 11.828C60.0409 11.276 59.6329 10.85 59.1169 10.55C58.6009 10.25 58.0249 10.1 57.3889 10.1C56.7529 10.1 56.1769 10.25 55.6609 10.55C55.1449 10.85 54.7369 11.276 54.4369 11.828C54.1369 12.368 53.9869 12.992 53.9869 13.7C53.9869 14.408 54.1369 15.038 54.4369 15.59C54.7369 16.13 55.1449 16.55 55.6609 16.85C56.1769 17.15 56.7529 17.3 57.3889 17.3Z" fill="white"/>
<path d="M78.2456 7.4V20H74.6816V15.086H69.8216V20H66.2576V7.4H69.8216V12.134H74.6816V7.4H78.2456ZM85.4935 20.162C84.4495 20.162 83.5075 19.946 82.6675 19.514C81.8275 19.082 81.1675 18.482 80.6875 17.714C80.2195 16.946 79.9855 16.076 79.9855 15.104C79.9855 14.144 80.2195 13.28 80.6875 12.512C81.1675 11.744 81.8215 11.15 82.6495 10.73C83.4895 10.298 84.4375 10.082 85.4935 10.082C86.5495 10.082 87.4975 10.298 88.3375 10.73C89.1775 11.15 89.8315 11.744 90.2995 12.512C90.7675 13.268 91.0015 14.132 91.0015 15.104C91.0015 16.076 90.7675 16.946 90.2995 17.714C89.8315 18.482 89.1775 19.082 88.3375 19.514C87.4975 19.946 86.5495 20.162 85.4935 20.162ZM85.4935 17.444C86.0935 17.444 86.5855 17.24 86.9695 16.832C87.3535 16.412 87.5455 15.836 87.5455 15.104C87.5455 14.384 87.3535 13.82 86.9695 13.412C86.5855 13.004 86.0935 12.8 85.4935 12.8C84.8935 12.8 84.4015 13.004 84.0175 13.412C83.6335 13.82 83.4415 14.384 83.4415 15.104C83.4415 15.836 83.6335 16.412 84.0175 16.832C84.4015 17.24 84.8935 17.444 85.4935 17.444ZM105.294 10.082C106.494 10.082 107.448 10.442 108.156 11.162C108.876 11.882 109.236 12.968 109.236 14.42V20H105.816V14.978C105.816 14.294 105.684 13.79 105.42 13.466C105.168 13.142 104.808 12.98 104.34 12.98C103.824 12.98 103.41 13.16 103.098 13.52C102.786 13.88 102.63 14.426 102.63 15.158V20H99.2098V14.978C99.2098 13.646 98.7178 12.98 97.7338 12.98C97.2058 12.98 96.7858 13.16 96.4738 13.52C96.1618 13.88 96.0058 14.426 96.0058 15.158V20H92.5858V10.244H95.8438V11.27C96.2038 10.874 96.6298 10.58 97.1218 10.388C97.6258 10.184 98.1718 10.082 98.7598 10.082C99.4438 10.082 100.056 10.208 100.596 10.46C101.136 10.712 101.574 11.096 101.91 11.612C102.294 11.12 102.78 10.742 103.368 10.478C103.956 10.214 104.598 10.082 105.294 10.082ZM121.507 15.14C121.507 15.164 121.489 15.446 121.453 15.986H114.361C114.505 16.49 114.781 16.88 115.189 17.156C115.609 17.42 116.131 17.552 116.755 17.552C117.223 17.552 117.625 17.486 117.961 17.354C118.309 17.222 118.657 17.006 119.005 16.706L120.805 18.578C119.857 19.634 118.471 20.162 116.647 20.162C115.507 20.162 114.505 19.946 113.641 19.514C112.777 19.082 112.105 18.482 111.625 17.714C111.157 16.946 110.923 16.076 110.923 15.104C110.923 14.144 111.151 13.286 111.607 12.53C112.075 11.762 112.717 11.162 113.533 10.73C114.349 10.298 115.267 10.082 116.287 10.082C117.259 10.082 118.141 10.286 118.933 10.694C119.725 11.09 120.349 11.672 120.805 12.44C121.273 13.196 121.507 14.096 121.507 15.14ZM116.305 12.512C115.777 12.512 115.333 12.662 114.973 12.962C114.625 13.262 114.403 13.67 114.307 14.186H118.303C118.207 13.67 117.979 13.262 117.619 12.962C117.271 12.662 116.833 12.512 116.305 12.512Z" fill="#FF662D"/>
<rect width="25.4546" height="25.4546" transform="matrix(-1 0 0 1 25.4546 0)" fill="#FF662D"/>
<rect width="14" height="20.3636" transform="matrix(-1 0 0 1 19.7273 5.09091)" fill="#0F1D2D"/>
<path d="M19.7273 5.09091L9.54547 7.63637V28L19.7273 25.4546V5.09091Z" fill="#FF662D"/>
</svg>
